<svg width="175" height="32" viewBox="0 0 175 32" fill="none" xmlns="http://www.w3.org/2000/svg">
<g clip-path="url(#clip0_131_986)">
<path d="M10.028 4.50613H7.07852V6.00817H10.028V13.9755H11.8632V0H10.028V4.50613Z" fill="black"/>
<path d="M5.37453 3.52655V1.11023H3.53933V3.52655C3.53933 6.13879 2.16292 8.68573 0.131086 9.66533L0 9.73063L1.17978 11.1674L1.24532 11.1021C2.68727 10.3837 3.8015 8.94696 4.52247 7.05308C5.1779 8.81635 6.29213 10.1878 7.73408 10.8408L7.79962 10.9061L8.91386 9.46941L8.78277 9.4041C6.75094 8.48981 5.37453 6.13879 5.37453 3.52655Z" fill="black"/>
<path d="M13.764 7.11837H19.2041V7.96735H15.2715V9.40409H23.1367V10.1225H15.2715V13.8449H25.2996V12.4082H17.1067V11.4939H24.9064V7.96735H21.0393V7.11837H26.4794V5.61633H13.764V7.11837Z" fill="black"/>
<path d="M20.1217 5.15919C23.3333 5.15919 25.1686 4.2449 25.1686 2.67756C25.1686 1.11021 23.3333 0.195923 20.1217 0.195923C16.9101 0.195923 15.0749 1.11021 15.0749 2.67756C15.0749 4.2449 16.9101 5.15919 20.1217 5.15919ZM16.9757 2.67756C16.9757 1.95919 18.0899 1.63265 20.1217 1.63265C22.1536 1.63265 23.2678 2.0245 23.2678 2.67756C23.2678 3.39592 22.1536 3.72246 20.1217 3.72246C18.0899 3.72246 16.9757 3.33062 16.9757 2.67756Z" fill="black"/>
<path d="M32.7716 3.5265V1.17548H30.9364V3.5265C30.9364 6.20405 29.4945 8.68568 27.3971 9.66527L27.266 9.73058L28.3147 11.2326L28.3802 11.1673C29.9533 10.4489 31.133 8.9469 31.854 7.05303C32.5094 8.81629 33.7548 10.1877 35.1967 10.9061L35.2622 10.9714L36.3109 9.53466L36.1798 9.46935C34.2136 8.48976 32.7716 6.07344 32.7716 3.5265Z" fill="black"/>
<path d="M38.9983 0H37.1631V13.9755H38.9983V0Z" fill="black"/>
<path d="M49.8781 7.18369L49.6815 5.68166H49.5504C47.5186 6.00819 45.88 6.07349 43.6516 6.07349V4.83267H48.3707V0.718384H41.8163V2.22042H46.5354V3.39594H41.8163V7.64083H43.1272C45.8145 7.64083 47.6497 7.57553 49.8126 7.249L49.8781 7.18369Z" fill="black"/>
<path d="M50.8616 9.66531H45.2249V8.22858H43.3896V13.7796H52.6312V8.22858H50.796V9.66531H50.8616ZM45.2249 12.2776V11.102H50.8616V12.2776H45.2249Z" fill="black"/>
<path d="M52.6311 0.0653076H50.7959V7.90204H52.6311V0.0653076Z" fill="black"/>
<path d="M55.4495 10.6449H62.1349V1.3714H55.4495V10.6449ZM60.3653 2.80813V9.07752H57.2192V2.80813H60.3653Z" fill="black"/>
<path d="M66.264 0H64.4287V13.9755H66.264V0Z" fill="black"/>
<path d="M69.6723 5.09388C71.9663 4.83265 73.736 3.91836 74.7191 2.61224C75.6367 3.91836 77.4719 4.83265 79.7659 5.09388H79.8315L80.4869 3.65714H80.2903C77.6685 3.39592 75.6367 2.08979 75.6367 0.653054V0.130615H73.736V0.653054C73.736 2.08979 71.7041 3.39592 69.0824 3.65714H68.8858L69.5412 5.09388H69.6723Z" fill="black"/>
<path d="M68.3614 7.05307H73.8015V7.96735H69.8689V9.40409H77.7341V10.1878H69.8689V13.8449H79.897V12.4082H71.7041V11.5592H79.5037V8.03266H75.6367V7.11837H81.0768V5.61633H68.3614V7.05307Z" fill="black"/>
<path d="M87.6966 5.81227V5.94288L89.4663 6.1388V6.00819C89.794 4.24493 89.794 2.87349 89.794 1.9592V1.04492H82.6498V2.54696H88.0243C88.0243 3.46125 87.9588 4.50615 87.6966 5.81227Z" fill="black"/>
<path d="M85.7303 9.40405H83.8951V13.7143H93.53V12.2122H85.7959V9.40405H85.7303Z" fill="black"/>
<path d="M93.0712 4.37552V0.0653076H91.236V10.5796H93.0712V5.94286H94.9064V4.37552H93.0712Z" fill="black"/>
<path d="M90.7772 7.96732L90.6461 6.59589H90.515C89.1386 6.79181 87.6966 6.92242 86.3858 6.92242V4.17957H84.5506V6.98773C83.633 6.98773 82.7154 6.98773 81.9288 6.98773H81.7978L81.9944 8.48977H82.1255C84.3539 8.48977 87.6966 8.42446 90.6461 7.90201L90.7772 7.96732Z" fill="black"/>
<path d="M8.12734 30.8898C6.81648 32 5.1779 32 4.65356 32C3.99813 32 2.03183 32 0.524343 30.4326C0.327714 30.2367 0.131085 29.9755 0 29.7796L1.63858 28.6694C2.09738 29.3224 2.94944 30.2367 4.91573 30.2367C4.98127 30.2367 5.37453 30.2367 5.70225 30.1714C5.89887 30.1061 6.94756 29.8449 6.94756 28.8653C6.94756 28.7347 6.94756 28.4735 6.75093 28.2122C6.42322 27.7551 5.44007 27.6245 4.91573 27.4939L3.67041 27.2326C3.14607 27.102 2.55618 26.9714 2.09738 26.7755C1.63858 26.5143 0.589886 25.8612 0.589886 24.3592C0.589886 24.098 0.589886 23.4449 0.983145 22.7918C1.44195 22.0082 2.62172 21.0939 4.7191 21.0939C5.6367 21.0939 7.53745 21.2245 8.9794 23.1837L7.34082 24.3592C7.01311 23.8367 6.29213 22.7918 4.58801 22.7918C4.45693 22.7918 3.14607 22.7918 2.75281 23.5755C2.68726 23.7061 2.62172 23.902 2.62172 24.0326C2.62172 24.2286 2.68726 24.3592 2.75281 24.4898C3.01498 24.9469 3.60487 25.0775 4.58801 25.2735L5.70225 25.5347C6.68539 25.7306 7.79962 26.0571 8.5206 26.8408C8.84831 27.1673 9.11049 27.6245 9.11049 28.6041C9.11049 29.5837 8.84831 30.302 8.12734 30.8898Z" fill="#949494"/>
<path d="M10.8146 31.7388V21.2898H18.2865V23.0531H12.7154V25.5347H17.8277V27.2327H12.7154V30.0408H18.6142V31.8041H10.8146V31.7388Z" fill="#949494"/>
<path d="M27.2005 24.1633C26.6761 23.249 25.8241 22.7918 24.7754 22.7918C24.1199 22.7918 23.6611 22.9877 23.4645 23.1184C22.7435 23.5102 21.8259 24.4898 21.8259 26.449C21.8259 26.8408 21.8259 28.8 23.3334 29.7143C23.9888 30.1061 24.6443 30.1714 24.9064 30.1714C25.1031 30.1714 25.5619 30.1714 26.0862 29.9102C26.8727 29.5837 27.8559 28.6694 27.9214 26.7102C27.7903 25.8612 27.6593 24.9469 27.2005 24.1633ZM28.3147 30.498C28.0525 30.7592 27.4626 31.3469 26.545 31.6735C26.2173 31.8041 25.6274 32 24.7098 32C23.2023 32 22.0881 31.5428 21.1049 30.3673C20.1218 29.2571 19.7285 27.951 19.7285 26.5143C19.7285 26.1877 19.7285 25.3388 20.0563 24.4898C20.7117 22.4 22.5469 21.0286 24.7754 21.0286C26.8072 21.0286 27.987 22.1388 28.5113 22.6612C29.0357 23.3143 29.8222 24.4898 29.8222 26.5143C29.7566 27.1673 29.6911 28.9959 28.3147 30.498Z" fill="#949494"/>
<path d="M39.9812 29.5837C39.6535 30.6286 38.4082 32 35.852 32C34.6067 32 33.3614 31.6735 32.5093 30.7592C32.3782 30.6286 32.0505 30.1714 31.8539 29.649C31.7228 29.1265 31.7228 28.6041 31.7228 27.4939V21.2898H33.6891V27.7551C33.6891 28.4082 33.6891 28.6041 33.8202 28.9306C34.0168 29.5837 34.6067 30.1714 35.9831 30.1714C36.2453 30.1714 37.6872 30.1714 38.146 28.9959C38.2771 28.6694 38.2771 28.3429 38.2771 27.6898V21.3551H40.2434V27.3633C40.1123 28.4735 40.1778 28.9959 39.9812 29.5837Z" fill="#949494"/>
<path d="M42.5374 31.7388V21.2898H44.5037V29.9755H48.6984V31.7388H42.5374Z" fill="#949494"/>
<path d="M62.3972 31.7388L62.5938 23.1184L60.2998 31.7388H58.5301L56.2361 23.1184L56.4327 31.7388H54.532V21.2898H57.4159L59.4477 29.0612L61.4796 21.2898H64.2979V31.7388H62.3972Z" fill="#949494"/>
<path d="M74.9813 29.5837C74.6536 30.6286 73.4083 32 70.8521 32C69.6068 32 68.3615 31.6735 67.5094 30.7592C67.3783 30.6286 67.0506 30.1714 66.854 29.649C66.7229 29.1265 66.7229 28.6041 66.7229 27.4939V21.2898H68.6892V27.7551C68.6892 28.4082 68.6892 28.6041 68.8203 28.9306C69.0169 29.5837 69.6068 30.1714 70.9832 30.1714C71.2454 30.1714 72.6873 30.1714 73.1461 28.9959C73.2772 28.6694 73.2772 28.3429 73.2772 27.6898V21.3551H75.2435V27.3633C75.178 28.4735 75.178 28.9959 74.9813 29.5837Z" fill="#949494"/>
<path d="M84.7473 30.8898C83.502 31.9347 81.7978 32 81.2735 32C80.6181 32 78.6518 32 77.1443 30.4326C76.9476 30.2367 76.751 29.9755 76.6199 29.7796L78.2585 28.6694C78.7173 29.3224 79.5694 30.2367 81.5357 30.2367C81.6012 30.2367 81.9945 30.2367 82.3222 30.1714C82.5188 30.1061 83.5675 29.8449 83.5675 28.8653C83.5675 28.7347 83.5675 28.4735 83.3709 28.2122C83.0432 27.7551 82.06 27.6245 81.5357 27.4939L80.2903 27.2326C79.766 27.102 79.1761 26.9714 78.7173 26.7755C78.2585 26.5143 77.2098 25.8612 77.2098 24.3592C77.2098 24.098 77.2098 23.4449 77.6031 22.7918C78.0619 22.0082 79.2417 21.0939 81.339 21.0939C82.2566 21.0939 84.1574 21.2245 85.5993 23.1837L83.9608 24.3592C83.633 23.8367 82.9121 22.7918 81.2079 22.7918C81.0769 22.7918 79.766 22.7918 79.3727 23.5755C79.3072 23.7061 79.2417 23.902 79.2417 24.0326C79.2417 24.2286 79.3072 24.3592 79.3727 24.4898C79.6349 24.9469 80.2248 25.0775 81.2079 25.2735L82.3222 25.5347C83.3053 25.7306 84.4196 26.0571 85.1405 26.8408C85.4682 27.1673 85.7304 27.6245 85.7304 28.6041C85.796 29.5837 85.4682 30.302 84.7473 30.8898Z" fill="#949494"/>
<path d="M87.4345 31.7388V21.2898H94.9064V23.0531H89.3353V25.5347H94.4476V27.2327H89.3353V30.0408H95.2342V31.8041H87.4345V31.7388Z" fill="#949494"/>
<path d="M105.131 29.5837C104.803 30.6286 103.558 32 101.002 32C99.7566 32 98.5113 31.6735 97.6593 30.7592C97.5282 30.6286 97.2005 30.1714 97.0038 29.649C96.8727 29.1265 96.8727 28.6041 96.8727 27.4939V21.2898H98.839V27.7551C98.839 28.4082 98.839 28.6041 98.9701 28.9306C99.1667 29.5837 99.7566 30.1714 101.133 30.1714C101.395 30.1714 102.837 30.1714 103.296 28.9959C103.427 28.6694 103.427 28.3429 103.427 27.6898V21.3551H105.393V27.3633C105.262 28.4735 105.328 28.9959 105.131 29.5837Z" fill="#949494"/>
<path d="M115.487 31.7388L115.684 23.1184L113.39 31.7388H111.62L109.326 23.1184L109.523 31.7388H107.622V21.2898H110.506L112.538 29.0612L114.569 21.2898H117.388V31.7388H115.487Z" fill="#949494"/>
<path d="M131.086 24.1633C130.562 23.249 129.71 22.7918 128.661 22.7918C128.006 22.7918 127.547 22.9877 127.35 23.1184C126.629 23.5102 125.712 24.4898 125.712 26.449C125.712 26.8408 125.712 28.8 127.219 29.7143C127.875 30.1061 128.53 30.1714 128.792 30.1714C128.989 30.1714 129.448 30.1714 129.972 29.9102C130.759 29.5837 131.742 28.6694 131.807 26.7102C131.742 25.8612 131.545 24.9469 131.086 24.1633ZM132.2 30.498C131.938 30.7592 131.348 31.3469 130.431 31.6735C130.103 31.8041 129.513 32 128.596 32C127.088 32 125.974 31.5428 124.991 30.3673C124.008 29.2571 123.614 27.951 123.614 26.5143C123.614 26.1877 123.614 25.3388 123.942 24.4898C124.597 22.4 126.433 21.0286 128.661 21.0286C130.693 21.0286 131.873 22.1388 132.397 22.6612C132.921 23.3143 133.708 24.4898 133.708 26.5143C133.708 27.1673 133.577 28.9959 132.2 30.498Z" fill="#949494"/>
<path d="M137.509 22.9878V25.6H141.901V27.298H137.509V31.7388H135.543V21.2898H142.491V23.0531H137.509V22.9878Z" fill="#949494"/>
<path d="M151.798 23.1184L150.356 27.951H153.24L151.798 23.1184ZM154.42 31.7388L153.83 29.7143H149.897L149.307 31.7388H147.21L150.749 21.2898H152.978L156.582 31.7388H154.42Z" fill="#949494"/>
<path d="M163.006 23.249C162.678 23.0531 162.285 22.9224 161.433 22.9224H159.86V26.1878H160.581C161.76 26.1878 162.416 26.1878 162.94 25.9265C163.268 25.7959 163.727 25.4041 163.727 24.5551C163.661 24.2939 163.596 23.7061 163.006 23.249ZM163.661 31.7388L161.564 27.8857H159.794V31.7388H157.828V21.2898H162.154C162.612 21.2898 164.054 21.3551 164.972 22.5959C165.562 23.3796 165.627 24.2939 165.627 24.6204C165.627 24.751 165.627 25.2735 165.431 25.7959C165.3 26.2531 164.775 27.102 163.53 27.4939L165.89 31.7388H163.661Z" fill="#949494"/>
<path d="M171.461 23.0531V31.7388H169.494V23.0531H166.611V21.2898H174.345V23.0531H171.461Z" fill="#949494"/>
</g>
<defs>
<clipPath id="clip0_131_986">
<rect width="174.345" height="32" fill="white"/>
</clipPath>
</defs>
</svg>
