<svg width="267" height="237" viewBox="0 0 267 237" fill="none" xmlns="http://www.w3.org/2000/svg">
<path d="M118.772 43.1124C117.09 44.5373 114.835 44.5575 114.201 44.5575C113.37 44.5575 110.699 44.5177 108.76 42.4798C108.523 42.2223 108.267 41.887 108.088 41.5701L110.285 40.0468C110.898 40.9565 112.045 42.1434 114.617 42.1434C114.735 42.1434 115.23 42.1434 115.645 42.0443C115.942 41.9855 117.307 41.6087 117.307 40.3043C117.307 40.1655 117.288 39.7898 117.05 39.4735C116.575 38.8404 115.309 38.6629 114.617 38.5039L112.956 38.1276C112.243 37.9686 111.472 37.8113 110.838 37.4755C110.186 37.1378 108.84 36.2482 108.84 34.2306C108.84 33.9143 108.879 33.0046 109.374 32.1725C110.007 31.1044 111.53 29.8784 114.36 29.8784C115.605 29.8784 118.058 30.076 119.997 32.7066L117.84 34.3089C117.405 33.617 116.417 32.2313 114.221 32.2313C114.082 32.2313 112.321 32.2123 111.747 33.3007C111.629 33.5185 111.588 33.7148 111.588 33.9339C111.588 34.1706 111.648 34.3694 111.767 34.5671C112.102 35.1403 112.876 35.3189 114.16 35.5955L115.604 35.9118C116.93 36.2091 118.395 36.6049 119.323 37.6933C119.72 38.1276 120.135 38.7608 120.135 40.0468C120.137 41.3119 119.741 42.2816 118.772 43.1124Z" fill="white"/>
<path d="M122.409 44.2007V30.2331H132.339V32.5677H124.981V35.8523H131.726V38.1067H124.981V41.8459H132.834V44.2007H122.409Z" fill="white"/>
<path d="M145.671 42.558C145.355 42.8945 144.544 43.7051 143.297 44.1603C142.861 44.3193 142.051 44.5567 140.864 44.5567C138.886 44.5567 137.382 43.9039 136.076 42.4002C134.77 40.9166 134.217 39.1755 134.217 37.2361C134.217 36.781 134.236 35.7122 134.632 34.5266C135.542 31.7368 137.936 29.8776 140.923 29.8776C143.613 29.8776 145.217 31.3404 145.868 32.0923C146.6 32.9243 147.63 34.5455 147.61 37.2166C147.61 38.0871 147.512 40.5606 145.671 42.558ZM144.147 34.1118C143.416 32.9249 142.308 32.2715 140.904 32.2715C140.033 32.2715 139.4 32.5493 139.123 32.6869C138.134 33.221 136.907 34.5272 136.907 37.1383C136.907 37.6723 136.927 40.2443 138.886 41.5302C139.737 42.0845 140.587 42.123 140.943 42.123C141.221 42.123 141.853 42.1041 142.546 41.7878C143.575 41.3124 144.92 40.1256 144.979 37.4943C145 36.3472 144.782 35.12 144.147 34.1118Z" fill="white"/>
<path d="M161.159 41.3516C160.703 42.7563 159.101 44.5567 155.678 44.5567C154.037 44.5567 152.394 44.1603 151.247 42.8945C151.069 42.7171 150.594 42.1427 150.358 41.3908C150.14 40.6787 150.14 40.0259 150.14 38.5423V30.2331H152.77V38.8195C152.77 39.6503 152.77 39.9464 152.909 40.3618C153.166 41.1938 153.918 42.024 155.779 42.024C156.114 42.024 158.033 42.024 158.607 40.4413C158.766 39.9849 158.784 39.6099 158.784 38.68V30.2331H161.396V38.2854C161.397 39.887 161.416 40.56 161.159 41.3516Z" fill="white"/>
<path d="M164.638 44.2007V30.2331H167.269V41.8264H172.808V44.2007H164.638Z" fill="white"/>
<path d="M191.045 44.2007L191.302 32.7267L188.275 44.2007H185.92L182.894 32.7267L183.151 44.2007H180.599V30.2331H184.398L187.128 40.6003L189.819 30.2331H193.596V44.2007H191.045Z" fill="white"/>
<path d="M207.798 41.3516C207.343 42.7563 205.74 44.5567 202.317 44.5567C200.676 44.5567 199.033 44.1603 197.886 42.8945C197.708 42.7171 197.234 42.1427 196.997 41.3908C196.779 40.6787 196.779 40.0259 196.779 38.5423V30.2331H199.409V38.8195C199.409 39.6503 199.409 39.9464 199.548 40.3618C199.805 41.1938 200.557 42.024 202.418 42.024C202.753 42.024 204.672 42.024 205.246 40.4413C205.405 39.9849 205.423 39.6099 205.423 38.68V30.2331H208.035V38.2854C208.035 39.887 208.054 40.56 207.798 41.3516Z" fill="white"/>
<path d="M220.792 43.1122C219.111 44.5371 216.855 44.5573 216.222 44.5573C215.391 44.5573 212.72 44.5175 210.781 42.4797C210.545 42.2221 210.287 41.8868 210.11 41.5699L212.305 40.0466C212.92 40.9563 214.067 42.1432 216.639 42.1432C216.757 42.1432 217.252 42.1432 217.666 42.0441C217.963 41.9853 219.328 41.6085 219.328 40.3042C219.328 40.1653 219.308 39.7897 219.071 39.4734C218.596 38.8402 217.33 38.6628 216.639 38.5037L214.976 38.1274C214.264 37.9684 213.493 37.8112 212.86 37.4753C212.207 37.1376 210.862 36.248 210.862 34.2304C210.862 33.9141 210.901 33.0044 211.394 32.1724C212.028 31.1042 213.551 29.8782 216.381 29.8782C217.627 29.8782 220.08 30.0758 222.019 32.7064L219.862 34.3087C219.427 33.6168 218.439 32.2311 216.242 32.2311C216.103 32.2311 214.343 32.2121 213.768 33.3005C213.65 33.5183 213.61 33.7147 213.61 33.9337C213.61 34.1704 213.67 34.3693 213.788 34.5669C214.124 35.1401 214.896 35.3187 216.181 35.5953L217.626 35.9116C218.952 36.2089 220.416 36.6047 221.345 37.6931C221.74 38.1274 222.157 38.7606 222.157 40.0466C222.158 41.3118 221.761 42.2814 220.792 43.1122Z" fill="white"/>
<path d="M224.429 44.2007V30.2331H234.361V32.5677H227.001V35.8523H233.748V38.1067H227.001V41.8459H234.854V44.2007H224.429Z" fill="white"/>
<path d="M247.89 41.3516C247.435 42.7563 245.832 44.5567 242.409 44.5567C240.768 44.5567 239.125 44.1603 237.978 42.8945C237.8 42.7171 237.325 42.1427 237.089 41.3908C236.871 40.6787 236.871 40.0259 236.871 38.5423V30.2331H239.501V38.8195C239.501 39.6503 239.501 39.9464 239.64 40.3618C239.897 41.1938 240.649 42.024 242.51 42.024C242.845 42.024 244.764 42.024 245.339 40.4413C245.498 39.9849 245.516 39.6099 245.516 38.68V30.2331H248.128V38.2854C248.128 39.887 248.146 40.56 247.89 41.3516Z" fill="white"/>
<path d="M261.695 44.2007L261.953 32.7267L258.925 44.2007H256.571L253.544 32.7267L253.801 44.2007H251.249V30.2331H255.048L257.778 40.6003L260.469 30.2331H264.247V44.2007H261.695Z" fill="white"/>
<path d="M120.038 62.198C119.721 62.5345 118.91 63.3451 117.663 63.8003C117.228 63.9594 116.417 64.1967 115.23 64.1967C113.252 64.1967 111.749 63.544 110.443 62.0402C109.136 60.5566 108.583 58.8155 108.583 56.8762C108.583 56.421 108.602 55.3522 108.999 54.1666C109.908 51.3768 112.302 49.5176 115.29 49.5176C117.98 49.5176 119.583 50.9804 120.235 51.7323C120.966 52.5643 121.996 54.1855 121.976 56.8566C121.977 57.7271 121.878 60.2 120.038 62.198ZM118.514 53.7512C117.783 52.5643 116.675 51.9109 115.27 51.9109C114.4 51.9109 113.766 52.1887 113.49 52.3263C112.501 52.8604 111.273 54.1666 111.273 56.7777C111.273 57.3117 111.294 59.8837 113.252 61.1696C114.103 61.7239 114.954 61.7625 115.309 61.7625C115.587 61.7625 116.22 61.7435 116.913 61.4272C117.941 60.9518 119.286 59.765 119.346 57.1337C119.366 55.9866 119.148 54.76 118.514 53.7512Z" fill="white"/>
<path d="M127.117 52.2083V55.6905H132.953V57.9254H127.117V63.8407H124.525V49.8725H133.764V52.2083H127.117Z" fill="white"/>
<path d="M149.608 63.8407L148.796 61.1097H143.553L142.743 63.8407H139.933L144.661 49.8725H147.628L152.396 63.8407H149.608ZM146.185 52.3857L144.246 58.8155H148.104L146.185 52.3857Z" fill="white"/>
<path d="M161.93 63.84L159.179 58.6558H156.825V63.84H154.233V49.873H159.952C160.585 49.873 162.464 49.933 163.711 51.5744C164.522 52.6438 164.562 53.8496 164.562 54.3054C164.562 54.5232 164.542 55.2151 164.304 55.8679C164.087 56.4417 163.415 57.6482 161.811 58.1431L164.919 63.84H161.93ZM161.039 52.5435C160.584 52.2468 160.05 52.1281 158.941 52.1281H156.825V56.4803H157.755C159.278 56.4803 160.229 56.4803 160.861 56.145C161.257 55.9272 161.909 55.4133 161.909 54.2846C161.909 53.9285 161.87 53.0977 161.039 52.5435Z" fill="white"/>
<path d="M172.293 52.2272V63.84H169.682V52.2272H165.883V49.873H176.151V52.2272H172.293Z" fill="white"/>
<path d="M121.003 6.62563H116.91V8.73139H121.003V19.867H123.533V0.3255H121.003V6.62563Z" fill="white"/>
<path d="M114.562 5.23934V1.91614H112.032V5.23873C112.032 8.92532 110.071 12.4584 107.266 13.8318L107.084 13.9199L108.67 15.9223L108.789 15.8611C110.794 14.8296 112.392 12.8138 113.32 10.1575C114.227 12.6486 115.799 14.5494 117.783 15.5436L117.906 15.6048L119.398 13.5755L119.219 13.4923C116.433 12.2002 114.562 8.88372 114.562 5.23934Z" fill="white"/>
<path d="M126.162 10.2797H133.713V11.5027H128.219V13.483H139.186V14.5365H128.262V19.6761H142.204V17.6749H130.749V16.4092H141.652V11.5027H136.243V10.2797H143.816V8.21558H126.162V10.2797Z" fill="white"/>
<path d="M134.999 7.50109C139.443 7.50109 141.991 6.23593 141.991 4.02923C141.991 1.82437 139.443 0.559204 134.999 0.559204C130.555 0.559204 128.008 1.82437 128.008 4.02923C128.008 6.23593 130.555 7.50109 134.999 7.50109ZM134.999 2.51568C137.835 2.51568 139.398 3.05283 139.398 4.02862C139.398 5.00564 137.836 5.54278 134.999 5.54278C132.163 5.54278 130.601 5.00564 130.601 4.02862C130.601 3.05344 132.163 2.51568 134.999 2.51568Z" fill="white"/>
<path d="M152.453 5.25955V1.95776H149.944V5.25955C149.944 9.00182 147.907 12.5349 144.99 13.8514L144.811 13.9322L146.3 16.0275L146.424 15.9688C148.588 14.9153 150.284 12.8585 151.237 10.1465C152.179 12.6279 153.866 14.5794 155.913 15.5448L156.032 15.6017L157.504 13.5932L157.322 13.5113C154.454 12.2198 152.453 8.82624 152.453 5.25955Z" fill="white"/>
<path d="M161.148 0.346252H158.618V19.8884H161.148V0.346252Z" fill="white"/>
<path d="M177.565 13.8159H169.681V11.8435H167.171V19.6119H180.053V11.8435H177.565V13.8159ZM177.565 17.5276H169.681V15.858H177.565V17.5276Z" fill="white"/>
<path d="M180.053 0.368286H177.543V11.277H180.053V0.368286Z" fill="white"/>
<path d="M176.15 10.3159L175.849 8.212L175.686 8.2383C172.894 8.70815 170.524 8.80604 167.41 8.80909V7.0129H173.966V1.25909H164.881V3.36546H171.498V5.0344H164.923V10.9155H166.698C170.426 10.9155 173.012 10.8243 175.993 10.3416L176.15 10.3159Z" fill="white"/>
<path d="M183.848 15.1588H193.165V2.17065H183.848V15.1588ZM186.314 4.23481H190.698V13.0726H186.314V4.23481Z" fill="white"/>
<path d="M198.912 0.346252H196.383V19.8884H198.912V0.346252Z" fill="white"/>
<path d="M201.691 10.1948H209.242V11.4832H203.748V13.4611H214.715V14.5574H203.791V19.6762H217.733V17.675H206.277V16.4313H217.181V11.4832H211.772V10.1948H219.366V8.13062H201.691V10.1948Z" fill="white"/>
<path d="M203.527 7.41478C206.695 7.03425 209.229 5.77214 210.528 3.93618C211.827 5.77214 214.362 7.03364 217.529 7.41478L217.649 7.42946L218.531 5.43872L218.308 5.4167C214.606 5.04779 211.815 3.22101 211.815 1.16665V0.452698H209.242V1.16665C209.242 3.22101 206.451 5.04779 202.749 5.4167L202.527 5.43872L203.409 7.42946L203.527 7.41478Z" fill="white"/>
<path d="M228.573 8.47567L228.541 8.64697L231.006 8.91615L231.033 8.7681C231.503 6.27203 231.503 4.34859 231.503 3.07547V1.8103H221.548V3.91667H229.032C229.006 5.15308 228.927 6.56813 228.573 8.47567Z" fill="white"/>
<path d="M225.796 13.4764H223.267V19.4853H236.615V17.3789H225.796V13.4764Z" fill="white"/>
<path d="M236 6.43411V0.367065H233.47V15.0737H236V8.56066H238.545V6.43411H236Z" fill="white"/>
<path d="M232.788 11.4177L232.609 9.50589L232.439 9.53219C230.535 9.83196 228.474 9.95493 226.688 10.0326V6.17963H224.2V10.1079C222.901 10.1446 221.652 10.1446 220.544 10.1446H220.36L220.634 12.2516H220.777C223.891 12.2516 228.509 12.1677 232.64 11.4422L232.788 11.4177Z" fill="white"/>
<path d="M162.467 188.472C162.292 188.324 162.21 188.253 162.035 188.103C162.155 187.908 162.212 187.815 162.332 187.621L158.58 176.076C158.369 175.988 158.269 175.947 158.058 175.859L158.189 175.307L151.054 165.487C150.826 165.469 150.718 165.461 150.49 165.443C150.472 165.215 150.463 165.106 150.446 164.878L140.573 157.705C140.37 157.738 140.255 157.755 140.052 157.788C140.021 157.585 140.002 157.471 139.97 157.268L136.017 154.396L132.066 151.526C131.863 151.557 131.748 151.575 131.545 151.607C131.513 151.404 131.495 151.29 131.463 151.087L127.511 148.215L123.559 145.345C123.355 145.376 123.242 145.394 123.039 145.427C123.006 145.224 122.988 145.109 122.955 144.906L119.004 142.034L115.051 139.164C114.848 139.196 114.735 139.214 114.53 139.246C114.499 139.043 114.481 138.928 114.449 138.725L110.496 135.854L106.544 132.983C106.341 133.014 106.227 133.033 106.024 133.065C105.991 132.862 105.973 132.749 105.942 132.544L101.989 129.674L98.0374 126.802C97.8337 126.834 97.7199 126.852 97.5168 126.884C97.4844 126.681 97.4667 126.568 97.4336 126.364L93.4821 123.493L89.5294 120.621C89.3263 120.654 89.2131 120.672 89.01 120.703C88.9776 120.5 88.9598 120.387 88.9268 120.183L84.9753 117.312L81.0226 114.441C80.8195 114.473 80.7063 114.491 80.5019 114.523C80.4701 114.319 80.4524 114.206 80.42 114.002L76.4672 111.131L72.5157 108.26C72.3126 108.292 72.1982 108.31 71.9951 108.342C71.9627 108.139 71.9449 108.025 71.9131 107.822L67.9604 104.951L64.0089 102.079C63.8052 102.111 63.6914 102.129 63.4883 102.161C63.4559 101.958 63.4381 101.845 63.4051 101.641L59.4536 98.7697L55.5009 95.898C55.2977 95.9304 55.1846 95.9482 54.9802 95.9812C54.9484 95.7775 54.9307 95.6637 54.8983 95.4606L50.9468 92.5889L46.994 89.7172C46.7909 89.7496 46.6777 89.7674 46.4734 89.8004C46.4416 89.5967 46.4226 89.4829 46.3914 89.2798L42.4387 86.4081L38.4872 83.5364C38.2841 83.5688 38.1697 83.5865 37.9666 83.6196C37.9342 83.4165 37.9164 83.302 37.8846 83.0989L33.9319 80.2272L29.9804 77.3555C29.7767 77.388 29.6629 77.4063 29.4597 77.4387C29.4273 77.2356 29.409 77.1212 29.3765 76.9181L25.425 74.0464L21.4723 71.1747C21.2692 71.2071 21.156 71.2255 20.9517 71.2579C20.9199 71.0548 20.9021 70.9404 20.8697 70.7373L13.5259 65.4019C13.343 65.4154 13.2261 65.4252 13.0432 65.4398C13.0579 65.2569 13.0664 65.1401 13.0811 64.9572L8.20338 58.2422C8.02474 58.2 7.91095 58.1731 7.73231 58.1297C7.80267 57.9602 7.84794 57.8519 7.91768 57.6831L5.35309 49.7892L4.94075 49.5372C5.05944 49.3971 5.13652 49.3078 5.25521 49.1689V40.0919C5.10899 39.9457 5.02824 39.8649 4.88202 39.7187C5.02824 39.5737 5.10899 39.4917 5.25521 39.3467V34.4617V29.5772C5.10899 29.431 5.02824 29.3502 4.88202 29.204C5.02824 29.059 5.10899 28.977 5.25521 28.832V23.947V19.0619C5.10899 18.9169 5.02824 18.8349 4.88202 18.6899C5.02824 18.5449 5.10899 18.4629 5.25521 18.318V12.5537C5.15243 12.4204 5.08146 12.328 4.97868 12.194C5.13407 12.1298 5.24175 12.0845 5.39836 12.0203L7.61791 8.17522C7.59588 8.00821 7.57998 7.89319 7.55795 7.72617C7.72497 7.7482 7.8406 7.76288 8.00823 7.78491L11.8533 5.56536C11.9175 5.40997 11.9616 5.30229 12.027 5.14568C12.1604 5.24846 12.2528 5.31942 12.3867 5.4222H18.1491C18.2941 5.27721 18.3755 5.19523 18.5211 5.05024C18.6661 5.19523 18.7481 5.27721 18.8931 5.4222H23.7781H28.6632C28.8082 5.27721 28.8902 5.19523 29.0352 5.05024C29.1802 5.19523 29.2621 5.27721 29.4071 5.4222H34.2922H39.1773C39.3223 5.27721 39.4043 5.19523 39.5493 5.05024C39.6943 5.19523 39.7762 5.27721 39.9212 5.4222H44.8063H49.6914C49.8364 5.27721 49.9184 5.19523 50.0633 5.05024C50.2096 5.19523 50.2903 5.27721 50.4365 5.4222H55.321H60.2061C60.3511 5.27721 60.433 5.19523 60.578 5.05024C60.7243 5.19523 60.805 5.27721 60.9512 5.4222H65.8357H70.7208C70.867 5.27721 70.9477 5.19523 71.0927 5.05024C71.239 5.19523 71.3197 5.27721 71.4659 5.4222H76.351H81.2355C81.3817 5.27721 81.4624 5.19523 81.6087 5.05024C81.7536 5.19523 81.835 5.27721 81.9806 5.4222H86.8657H91.7502C91.8964 5.27721 91.9771 5.19523 92.1234 5.05024V0.537125C91.9771 0.392132 91.8964 0.310153 91.7502 0.165161H86.8657H81.9806C81.8344 0.310153 81.7536 0.392132 81.6087 0.537125C81.4624 0.392132 81.3817 0.310153 81.2355 0.165161H76.351H71.4659C71.3197 0.310153 71.239 0.392132 71.0927 0.537125C70.9477 0.392132 70.8664 0.310153 70.7208 0.165161H65.8357H60.9512C60.805 0.310153 60.7243 0.392132 60.578 0.537125C60.433 0.392132 60.3511 0.310153 60.2061 0.165161H55.321H50.4365C50.2903 0.310153 50.2096 0.392132 50.0633 0.537125C49.9184 0.392132 49.8364 0.310153 49.6914 0.165161H44.8063H39.9212C39.7762 0.310153 39.6943 0.392132 39.5493 0.537125C39.4043 0.392132 39.3223 0.310153 39.1773 0.165161H34.2922H29.4071C29.2621 0.310153 29.1802 0.392132 29.0352 0.537125C28.8902 0.392132 28.8082 0.310153 28.6632 0.165161H23.7781H18.8931C18.7481 0.310153 18.6661 0.392132 18.5211 0.537125C18.3749 0.392132 18.2941 0.310153 18.1491 0.165161H11.1797C11.0304 0.359708 10.9693 0.439851 10.82 0.634398C10.5936 0.540795 10.5 0.501641 10.273 0.40865L4.33386 3.83769C4.30205 4.08057 4.28859 4.18029 4.25739 4.42316C4.01451 4.45559 3.91479 4.46844 3.67192 4.50086L0.242877 10.44C0.33648 10.6664 0.375634 10.76 0.469237 10.9857C0.27469 11.1344 0.194547 11.1968 0 11.3449V18.3161C0.144992 18.4611 0.226971 18.5431 0.371963 18.6881C0.226971 18.8331 0.144992 18.9151 0 19.06V23.9451V28.8302C0.144992 28.9752 0.226971 29.0572 0.371963 29.2022C0.226971 29.3484 0.144992 29.4291 0 29.5754V34.4598V39.3449C0.144992 39.4899 0.226971 39.5719 0.371963 39.7169C0.226971 39.8631 0.144992 39.9438 0 40.0901V49.8816C0.173746 50.0309 0.256337 50.1013 0.431306 50.2505C0.311397 50.4451 0.254501 50.5375 0.134592 50.7332L3.14089 59.9852C3.35195 60.0733 3.4529 60.1143 3.66457 60.203C3.61074 60.4251 3.58565 60.5309 3.53182 60.7542L9.25076 68.6248C9.47895 68.6425 9.58601 68.6511 9.81543 68.6688C9.83317 68.897 9.84174 69.0053 9.85948 69.2335L17.7814 74.9898C17.9846 74.9573 18.099 74.939 18.3021 74.9078C18.3345 75.1109 18.3528 75.2241 18.384 75.4284L22.3368 78.2989L26.2883 81.1706C26.492 81.1382 26.6058 81.1198 26.8089 81.0886C26.8413 81.2917 26.8591 81.4049 26.8921 81.6092L30.8436 84.4797L34.7963 87.3514C34.9994 87.319 35.1126 87.3013 35.3169 87.2694C35.3488 87.4726 35.3665 87.5857 35.3989 87.7888L39.3504 90.6606L43.3032 93.5323C43.5063 93.4998 43.6207 93.4821 43.8238 93.4503C43.8556 93.6534 43.8746 93.7666 43.9058 93.9697L47.8585 96.8414L51.81 99.7131C52.0137 99.6807 52.1275 99.6629 52.3306 99.6299C52.363 99.8336 52.3808 99.9474 52.4126 100.151L56.3653 103.022L60.3168 105.894C60.5205 105.862 60.6343 105.843 60.8374 105.811C60.8699 106.014 60.8876 106.128 60.9206 106.331L64.8721 109.203L68.8249 112.075C69.028 112.042 69.1412 112.024 69.3455 111.992C69.3773 112.195 69.395 112.309 69.4275 112.512L73.379 115.384L77.3317 118.256C77.5348 118.223 77.6492 118.205 77.8523 118.172C77.8847 118.376 77.9031 118.49 77.9343 118.693L81.887 121.565L85.8385 124.436C86.0416 124.404 86.156 124.386 86.3591 124.353C86.3916 124.556 86.4093 124.671 86.4411 124.874L90.3938 127.746L94.3466 130.616C94.5497 130.584 94.6629 130.566 94.866 130.534C94.8984 130.737 94.9167 130.852 94.9492 131.055L98.9007 133.926L102.853 136.797C103.057 136.765 103.17 136.747 103.374 136.715C103.406 136.918 103.424 137.032 103.456 137.236L107.409 140.107L111.36 142.978C111.563 142.946 111.678 142.928 111.881 142.896C111.913 143.099 111.931 143.212 111.963 143.416L115.916 146.288L119.867 149.159C120.071 149.126 120.185 149.108 120.388 149.077C120.42 149.28 120.438 149.393 120.471 149.597L124.422 152.468L128.375 155.339C128.578 155.307 128.691 155.289 128.896 155.257C128.928 155.461 128.945 155.574 128.978 155.778L132.929 158.648L136.882 161.52C137.085 161.488 137.199 161.469 137.403 161.438C137.434 161.641 137.452 161.755 137.485 161.959L146.779 168.71C146.96 168.696 147.079 168.687 147.26 168.673C147.247 168.855 147.237 168.972 147.222 169.155L153.518 177.819C153.617 177.843 153.696 177.862 153.778 177.882L153.988 177.932C153.918 178.101 153.874 178.21 153.803 178.378L157.112 188.563C157.268 188.659 157.368 188.721 157.525 188.817C157.406 188.956 157.329 189.045 157.21 189.185V199.895C157.329 200.034 157.406 200.123 157.525 200.262L157.112 200.515L153.803 210.7C153.873 210.87 153.918 210.978 153.988 211.147L153.518 211.261L147.223 219.925L147.261 220.407C147.079 220.393 146.961 220.383 146.779 220.369L138.115 226.664C138.094 226.752 138.076 226.826 138.058 226.898L138.002 227.134C137.833 227.065 137.723 227.019 137.554 226.949L127.369 230.258C127.274 230.415 127.213 230.515 127.117 230.671L126.748 230.357H116.039L115.67 230.671L115.417 230.258L105.232 226.949C105.063 227.019 104.954 227.065 104.785 227.134C104.742 226.956 104.714 226.841 104.672 226.664L95.378 219.911C95.1749 219.944 95.0617 219.961 94.8574 219.994C94.8256 219.791 94.8072 219.677 94.7754 219.474L90.8227 216.602L86.8712 213.73C86.6681 213.763 86.5537 213.781 86.3506 213.814C86.3181 213.61 86.2998 213.496 86.2674 213.293L82.3159 210.421L78.3644 207.549C78.1606 207.582 78.0469 207.6 77.8437 207.633C77.8113 207.429 77.7936 207.315 77.7605 207.112L73.8091 204.24L69.8563 201.37C69.6532 201.402 69.54 201.419 69.3357 201.452C69.3039 201.249 69.2861 201.134 69.2537 200.931L65.301 198.06L61.3495 195.189C61.1464 195.221 61.032 195.239 60.8289 195.271C60.7971 195.068 60.7781 194.953 60.7469 194.75L56.7942 191.879L52.8427 189.008C52.6389 189.04 52.5252 189.058 52.322 189.09L49.6694 192.741C49.7018 192.944 49.7201 193.059 49.7526 193.262L53.7041 196.132L57.6568 199.004C57.8599 198.972 57.9731 198.954 58.1774 198.922C58.2092 199.125 58.227 199.238 58.2594 199.443L62.2121 202.313L66.1636 205.185C66.3667 205.153 66.4811 205.134 66.6842 205.103C66.7167 205.306 66.7344 205.419 66.7662 205.624L70.7189 208.494L74.6704 211.366C74.8742 211.333 74.9879 211.315 75.1911 211.284C75.2235 211.487 75.2418 211.6 75.2743 211.804L79.2258 214.675L83.1773 217.547C83.381 217.514 83.4948 217.496 83.6979 217.463C83.7303 217.667 83.7481 217.781 83.7811 217.984L87.7326 220.856L91.6853 223.727C91.8884 223.695 92.0028 223.677 92.2059 223.644L92.2879 224.165L102.16 231.337C102.382 231.285 102.488 231.258 102.711 231.206C102.799 231.418 102.84 231.517 102.928 231.728L114.472 235.48C114.668 235.36 114.76 235.304 114.955 235.184C115.104 235.358 115.175 235.44 115.323 235.615H127.462C127.611 235.441 127.681 235.359 127.83 235.184L128.015 235.297C128.106 235.353 128.193 235.406 128.314 235.48L139.858 231.728C139.946 231.517 139.987 231.417 140.075 231.206L140.626 231.337L150.447 224.203C150.465 223.975 150.473 223.866 150.491 223.638C150.719 223.619 150.827 223.611 151.056 223.593L158.19 213.773C158.138 213.55 158.111 213.445 158.059 213.221C158.27 213.134 158.37 213.092 158.581 213.005L162.333 201.46C162.213 201.265 162.156 201.172 162.037 200.976C162.211 200.828 162.293 200.757 162.468 200.608V188.472H162.467Z" fill="white"/>
</svg>
